# xmcd
#
# Track frame offsets: 
#        150
#        12845
#        36390
#        47867
#        53487
#        69362
#        81350
#        93887
#        105170
#        121497
#        143387
#
# Disc length: 2073 seconds
#
# Revision: 1
# Processed by: cddbd v1.5.2PL0 Copyright (c) Steve Scherf et al.
# Submitted via: ExactAudioCopy v1.0b3
#
DISCID=8108170b
DTITLE=Sambalanço Trio - Sambalanço Trio (1965)
DYEAR=1965
DGENRE=Brasil-Jazz
TTITLE0=Nanã
TTITLE1=Reza
TTITLE2=Estamos Aí
TTITLE3=Deus Brasileiro
TTITLE4=Preciso Aprender A Ser Só
TTITLE5=Cangaceiro
TTITLE6=Improviso Negro
TTITLE7=Roda De Samba
TTITLE8=Você
TTITLE9=Canção Que Veio De Dentro Do Azul
TTITLE10=Samba De Verão
EXTD=YEAR: 2004
EXTT0=
EXTT1=
EXTT2=
EXTT3=
EXTT4=
EXTT5=
EXTT6=
EXTT7=
EXTT8=
EXTT9=
EXTT10=
PLAYORDER=
